<svg id="Layer_1" data-name="Layer 1" xmlns="http://www.w3.org/2000/svg" viewBox="0 0 145.67 145.76"><defs><style>.cls-1{fill:#2bb673;}</style></defs><title>Artboard 2</title><polygon class="cls-1" points="64.27 94.5 70.09 92.38 64.54 86.14 64.27 94.5"/><polygon class="cls-1" points="84.89 44.9 84.61 53.26 90.44 51.14 84.89 44.9"/><path class="cls-1" d="M9.69,109.21l.27.48.25-.27-.49-.19Z"/><path class="cls-1" d="M96.93,75.43c-.75-2.06-2.65-2.54-5-1.67l-4.75,1.73,2.26,6.22L94.2,80c2.41-.88,3.43-2.58,2.75-4.46Z"/><polygon class="cls-1" points="38.34 61.84 38.06 70.2 43.89 68.08 38.34 61.84"/><path class="cls-1" d="M139.21,78.77,129.82,53l7.2-2.62,8.7,23.9A72.88,72.88,0,1,0,5.39,100.44c.86-2,2.82-3.93,6.09-5.12,5.61-2,9.35,0,10.51,3.22s-.48,5.6-2.06,7.42l-.82.95,5.34,2.6a8.83,8.83,0,0,0-.19-6l7.34-2.67,1.73,4.75-3,1.08a10.46,10.46,0,0,1-1.06,5.3l1.6.81,3.8-1.38,1.76,4.83-7.18,2.61-2.8-1.39c-.5.78-2.11,3.4-6.72,5.36.53.56,1,1.12,1.59,1.67a72.88,72.88,0,0,0,124.33-48ZM104.89,28.24,108.7,38.7,113.87,25l8.5-3.09L116.56,36.5l15.53,11-8.61,3.13-10.06-7.18-1.59,3.83,2.44,6.7-7.2,2.62L97.69,30.86Zm-26.5,9.43,6.94-2.53,20.51,21.93-7.72,2.81-3.54-4L84.52,59.59l-.17,5.32-7.54,2.74Zm-9.88,3.73,0,.06h0l1.52,4.18.73,2h0l3.7,10.17c1.18,3.24,1.19,5.82.08,8.18a10.47,10.47,0,0,1-6.18,5.21,11.33,11.33,0,0,1-10.71-1l3.06-6c1.81,1,3.32,1.5,5,.91s2.49-2.28,1.62-4.68L63.63,50.25,58.9,52l-2.29-6.23ZM31.85,54.61l6.94-2.53L59.3,74l-7.72,2.81-3.54-4L38,76.53l-.17,5.32-7.54,2.74Zm-11.14,34A19.48,19.48,0,0,1,7,88.73l2.28-6.21a14.4,14.4,0,0,0,9.55,0c2-.72,2.77-1.76,2.36-2.86l0-.08c-.4-1.1-1.46-1.35-5.33-.9-6,.76-10.82.77-12.74-4.5l0-.07c-1.74-4.79.82-9.64,7.06-11.91a17.52,17.52,0,0,1,11.94-.47l-1.77,6.36a13.64,13.64,0,0,0-8.2.11c-1.75.63-2.34,1.65-2,2.6l0,.07c.43,1.18,1.51,1.37,5.44.86,6.41-.87,10.82-.31,12.57,4.51l0,.07C30.07,81.61,27,86.27,20.71,88.57ZM46.52,112.5l-7.2,2.62L29.94,89.35l20.79-7.57L53,88,39.42,93,41,97.37,53.3,92.9l2.16,5.93L43.17,103.3Zm31.26-11.38-3.55-4-10.06,3.66L64,106.14l-7.54,2.74,1.58-30L65,76.38,85.5,98.32Zm24.94-9.08-8.08-5.9-3.19,1.16,2.84,7.81-7.2,2.62L77.71,72,90,67.49c4-1.45,7.09-1.42,9.47-.32A8.53,8.53,0,0,1,104,72.33l0,.07a8.69,8.69,0,0,1-2.45,9.9L111,89Zm26.17-9.53-10.06-7.18-1.59,3.83,2.44,6.7-7.2,2.62L103.1,62.72l7.2-2.62,3.81,10.46,5.18-13.73,8.5-3.09L122,68.36l15.53,11Z"/><path class="cls-1" d="M13.84,104.38l1.23.57.38-.51a4,4,0,0,0,.88-3.75,2.42,2.42,0,0,0-3.28-1.31,2.25,2.25,0,0,0-1.63,3A4.07,4.07,0,0,0,13.84,104.38Z"/><path class="cls-1" d="M18.22,117.71a5.86,5.86,0,0,0,3.4-2.72l-7.35-3.63-.31.44a4.44,4.44,0,0,0-.91,2.71q1.19,1.7,2.48,3.35A4.24,4.24,0,0,0,18.22,117.71Z"/></svg>